<svg xmlns="http://www.w3.org/2000/svg" viewBox="0 0 1280 800" width="1280" height="800" font-family="Inter, Segoe UI, sans-serif">
  <defs>
    <linearGradient id="bg" x1="0" y1="0" x2="1" y2="1">
      <stop offset="0" stop-color="#0a0d1e"/><stop offset=".55" stop-color="#0d1024"/><stop offset="1" stop-color="#12081f"/>
    </linearGradient>
    <linearGradient id="brand" x1="0" y1="0" x2="1" y2="0">
      <stop offset="0" stop-color="#7c5cff"/><stop offset=".5" stop-color="#22d3ee"/><stop offset="1" stop-color="#ff4d9d"/>
    </linearGradient>
    <linearGradient id="eq" x1="0" y1="0" x2="0" y2="1">
      <stop offset="0" stop-color="#22d3ee" stop-opacity=".45"/><stop offset="1" stop-color="#22d3ee" stop-opacity="0"/>
    </linearGradient>
    <linearGradient id="eqline" x1="0" y1="0" x2="1" y2="0">
      <stop offset="0" stop-color="#7c5cff"/><stop offset="1" stop-color="#22d3ee"/>
    </linearGradient>
    <radialGradient id="glowA" cx=".5" cy=".5" r=".5">
      <stop offset="0" stop-color="#7c5cff" stop-opacity=".5"/><stop offset="1" stop-color="#7c5cff" stop-opacity="0"/>
    </radialGradient>
    <radialGradient id="glowB" cx=".5" cy=".5" r=".5">
      <stop offset="0" stop-color="#22d3ee" stop-opacity=".4"/><stop offset="1" stop-color="#22d3ee" stop-opacity="0"/>
    </radialGradient>
    <radialGradient id="glowC" cx=".5" cy=".5" r=".5">
      <stop offset="0" stop-color="#ff4d9d" stop-opacity=".38"/><stop offset="1" stop-color="#ff4d9d" stop-opacity="0"/>
    </radialGradient>
    <clipPath id="rounded"><rect x="0" y="0" width="1280" height="800" rx="20"/></clipPath>
  </defs>

  <g clip-path="url(#rounded)">
    <rect width="1280" height="800" fill="url(#bg)"/>
    <ellipse cx="180" cy="90" rx="420" ry="300" fill="url(#glowA)"/>
    <ellipse cx="1120" cy="260" rx="380" ry="280" fill="url(#glowB)"/>
    <ellipse cx="700" cy="820" rx="520" ry="300" fill="url(#glowC)"/>

    <!-- ============ SIDEBAR ============ -->
    <rect x="0" y="0" width="84" height="800" fill="#080a18" opacity=".82"/>
    <line x1="84" y1="0" x2="84" y2="800" stroke="#ffffff" stroke-opacity=".07"/>
    <rect x="26" y="30" width="32" height="32" rx="10" fill="url(#brand)"/>
    <path d="M34 52 L40 40 L46 47 L52 34" stroke="#0a0d1e" stroke-width="2.6" fill="none" stroke-linecap="round" stroke-linejoin="round"/>
    <rect x="26" y="112" width="32" height="32" rx="10" fill="#ffffff" fill-opacity="0.14"/><rect x="34" y="120" width="6" height="16" rx="2" fill="#22d3ee" fill-opacity="0.95"/><rect x="43" y="124" width="6" height="12" rx="2" fill="#22d3ee" fill-opacity="0.95"/>
    <rect x="26" y="166" width="32" height="32" rx="10" fill="#ffffff" fill-opacity="0.05"/><path d="M34 187 l5-6 4 4 6-8" stroke="#8892bd" stroke-opacity="0.55" stroke-width="2.2" fill="none" stroke-linecap="round" stroke-linejoin="round"/>
    <rect x="26" y="220" width="32" height="32" rx="10" fill="#ffffff" fill-opacity="0.05"/><rect x="34" y="229" width="16" height="14" rx="3" stroke="#8892bd" stroke-opacity="0.55" stroke-width="1.9" fill="none"/><line x1="34" y1="234" x2="50" y2="234" stroke="#8892bd" stroke-opacity="0.55" stroke-width="1.9"/>
    <rect x="26" y="274" width="32" height="32" rx="10" fill="#ffffff" fill-opacity="0.05"/><circle cx="42" cy="290" r="7.5" stroke="#8892bd" stroke-opacity="0.55" stroke-width="1.9" fill="none"/><path d="M42 285 v5 l3.5 2.5" stroke="#8892bd" stroke-opacity="0.55" stroke-width="1.9" fill="none" stroke-linecap="round"/>
    <rect x="26" y="328" width="32" height="32" rx="10" fill="#ffffff" fill-opacity="0.05"/><path d="M42 351 c-6-4-8-7-8-10a4 4 0 0 1 8-2 4 4 0 0 1 8 2c0 3-2 6-8 10z" stroke="#8892bd" stroke-opacity="0.55" stroke-width="1.8" fill="none"/>
    <rect x="26" y="382" width="32" height="32" rx="10" fill="#ffffff" fill-opacity="0.05"/><circle cx="42" cy="398" r="3" stroke="#8892bd" stroke-opacity="0.55" stroke-width="1.9" fill="none"/><path d="M42 390 v2 M42 404 v2 M34 398 h2 M48 398 h2" stroke="#8892bd" stroke-opacity="0.55" stroke-width="1.9" stroke-linecap="round"/>
    <circle cx="42" cy="748" r="16" fill="#ffffff" fill-opacity=".08"/>
    <circle cx="42" cy="744" r="5.5" fill="#8892bd" fill-opacity=".8"/>
    <path d="M31 760 a11 11 0 0 1 22 0" fill="#8892bd" fill-opacity=".8"/>

    <!-- ============ TOP BAR ============ -->
    <text x="116" y="46" fill="#f0f2ff" font-size="19" font-weight="700" letter-spacing="-.3">Dashboard</text>
    <text x="116" y="68" fill="#8892bd" font-size="12.5">Compte live · FTMO 100K · 34 trades ce mois</text>

    <rect x="836" y="28" width="150" height="38" rx="11" fill="#ffffff" fill-opacity=".05" stroke="#ffffff" stroke-opacity=".09"/>
    <circle cx="858" cy="47" r="4.5" fill="#34d99a"/>
    <text x="872" y="52" fill="#c9d0ee" font-size="12.5" font-weight="500">cTrader · sync</text>

    <rect x="998" y="28" width="130" height="38" rx="11" fill="#ffffff" fill-opacity=".05" stroke="#ffffff" stroke-opacity=".09"/>
    <text x="1016" y="52" fill="#c9d0ee" font-size="12.5" font-weight="500">30 derniers j.</text>
    <path d="M1108 44 l5 6 5-6" stroke="#8892bd" stroke-width="1.8" fill="none" stroke-linecap="round"/>

    <rect x="1140" y="28" width="112" height="38" rx="11" fill="url(#brand)"/>
    <text x="1196" y="52" fill="#0a0d1e" font-size="12.5" font-weight="700" text-anchor="middle">+ Trade</text>

    <!-- ============ KPI CARDS ============ -->
    <rect x="116" y="96" width="267" height="112" rx="16" fill="#ffffff" fill-opacity=".045" stroke="#ffffff" stroke-opacity=".085"/><text x="140" y="128" fill="#8892bd" font-size="12" letter-spacing=".6" font-weight="600">P&amp;L NET</text><text x="140" y="166" fill="#34d99a" font-size="30" font-weight="700" letter-spacing="-.8">+4 820 €</text><rect x="140" y="180" width="128" height="6" rx="3" fill="#34d99a" fill-opacity=".9"/><rect x="268" y="180" width="32" height="6" rx="3" fill="#ffffff" fill-opacity=".08"/><text x="140" y="200" fill="#6d76a0" font-size="11">+12,4 % ce mois</text><rect x="407" y="96" width="267" height="112" rx="16" fill="#ffffff" fill-opacity=".045" stroke="#ffffff" stroke-opacity=".085"/><text x="431" y="128" fill="#8892bd" font-size="12" letter-spacing=".6" font-weight="600">WIN RATE</text><text x="431" y="166" fill="#22d3ee" font-size="30" font-weight="700" letter-spacing="-.8">64 %</text><rect x="431" y="180" width="102" height="6" rx="3" fill="#22d3ee" fill-opacity=".9"/><rect x="533" y="180" width="58" height="6" rx="3" fill="#ffffff" fill-opacity=".08"/><text x="431" y="200" fill="#6d76a0" font-size="11">78 / 122 trades</text><rect x="698" y="96" width="267" height="112" rx="16" fill="#ffffff" fill-opacity=".045" stroke="#ffffff" stroke-opacity=".085"/><text x="722" y="128" fill="#8892bd" font-size="12" letter-spacing=".6" font-weight="600">PROFIT FACTOR</text><text x="722" y="166" fill="#7c5cff" font-size="30" font-weight="700" letter-spacing="-.8">2,14</text><rect x="722" y="180" width="118" height="6" rx="3" fill="#7c5cff" fill-opacity=".9"/><rect x="840" y="180" width="42" height="6" rx="3" fill="#ffffff" fill-opacity=".08"/><text x="722" y="200" fill="#6d76a0" font-size="11">objectif 2,00 atteint</text><rect x="989" y="96" width="267" height="112" rx="16" fill="#ffffff" fill-opacity=".045" stroke="#ffffff" stroke-opacity=".085"/><text x="1013" y="128" fill="#8892bd" font-size="12" letter-spacing=".6" font-weight="600">DISCIPLINE</text><text x="1013" y="166" fill="#ff4d9d" font-size="30" font-weight="700" letter-spacing="-.8">87 / 100</text><rect x="1013" y="180" width="139" height="6" rx="3" fill="#ff4d9d" fill-opacity=".9"/><rect x="1152" y="180" width="21" height="6" rx="3" fill="#ffffff" fill-opacity=".08"/><text x="1013" y="200" fill="#6d76a0" font-size="11">checklist respectée</text>

    <!-- ============ MAIN CHART ============ -->
    <rect x="116" y="230" width="820" height="290" rx="18" fill="#ffffff" fill-opacity=".035" stroke="#ffffff" stroke-opacity=".08"/>
    <text x="144" y="264" fill="#f0f2ff" font-size="15" font-weight="600">EUR / USD · M15</text>
    <rect x="286" y="250" width="62" height="20" rx="6" fill="#34d99a" fill-opacity=".16"/>
    <text x="317" y="264" fill="#34d99a" font-size="11" font-weight="700" text-anchor="middle">LONG</text>
    <text x="912" y="264" fill="#8892bd" font-size="12.5" text-anchor="end">R:R 1 : 3,2</text>

    <line x1="144" y1="300.0" x2="908" y2="300.0" stroke="#ffffff" stroke-opacity=".05"/><line x1="144" y1="342.5" x2="908" y2="342.5" stroke="#ffffff" stroke-opacity=".05"/><line x1="144" y1="385.0" x2="908" y2="385.0" stroke="#ffffff" stroke-opacity=".05"/><line x1="144" y1="427.5" x2="908" y2="427.5" stroke="#ffffff" stroke-opacity=".05"/><line x1="144" y1="470.0" x2="908" y2="470.0" stroke="#ffffff" stroke-opacity=".05"/>

    <!-- zones TP / SL -->
    <rect x="372" y="296" width="520" height="26" fill="#34d99a" fill-opacity=".08"/>
    <line x1="372" y1="309" x2="892" y2="309" stroke="#34d99a" stroke-width="1.4" stroke-dasharray="6 5" opacity=".8"/>
    <text x="152" y="313" fill="#34d99a" font-size="11" font-weight="600">TP</text>
    <rect x="372" y="448" width="520" height="22" fill="#f2537d" fill-opacity=".08"/>
    <line x1="372" y1="459" x2="892" y2="459" stroke="#f2537d" stroke-width="1.4" stroke-dasharray="6 5" opacity=".8"/>
    <text x="152" y="463" fill="#f2537d" font-size="11" font-weight="600">SL</text>

    <g>
      <rect x="375.7" y="417.5" width="8.0" height="2.1" rx="1.4" fill="#f2537d"/><rect x="378.9" y="413.7" width="1.4" height="16.0" fill="#f2537d" opacity=".75"/>
      <rect x="391.0" y="419.5" width="8.0" height="12.2" rx="1.4" fill="#f2537d"/><rect x="394.2" y="410.8" width="1.4" height="27.5" fill="#f2537d" opacity=".75"/>
      <rect x="406.3" y="431.7" width="8.0" height="12.8" rx="1.4" fill="#f2537d"/><rect x="409.5" y="423.4" width="1.4" height="23.5" fill="#f2537d" opacity=".75"/>
      <rect x="421.6" y="442.2" width="8.0" height="2.4" rx="1.4" fill="#34d99a"/><rect x="424.8" y="439.4" width="1.4" height="8.1" fill="#34d99a" opacity=".75"/>
      <rect x="436.8" y="440.2" width="8.0" height="2.0" rx="1.4" fill="#34d99a"/><rect x="440.1" y="427.7" width="1.4" height="17.9" fill="#34d99a" opacity=".75"/>
      <rect x="452.1" y="440.2" width="8.0" height="6.1" rx="1.4" fill="#f2537d"/><rect x="455.4" y="430.3" width="1.4" height="30.0" fill="#f2537d" opacity=".75"/>
      <rect x="467.4" y="438.1" width="8.0" height="8.2" rx="1.4" fill="#34d99a"/><rect x="470.7" y="431.2" width="1.4" height="29.5" fill="#34d99a" opacity=".75"/>
      <rect x="482.7" y="438.1" width="8.0" height="13.3" rx="1.4" fill="#f2537d"/><rect x="486.0" y="425.3" width="1.4" height="31.7" fill="#f2537d" opacity=".75"/>
      <rect x="498.0" y="451.4" width="8.0" height="9.3" rx="1.4" fill="#f2537d"/><rect x="501.3" y="448.0" width="1.4" height="18.5" fill="#f2537d" opacity=".75"/>
      <rect x="513.3" y="442.9" width="8.0" height="17.8" rx="1.4" fill="#34d99a"/><rect x="516.6" y="438.7" width="1.4" height="31.3" fill="#34d99a" opacity=".75"/>
      <rect x="528.6" y="432.2" width="8.0" height="10.7" rx="1.4" fill="#34d99a"/><rect x="531.9" y="425.6" width="1.4" height="26.1" fill="#34d99a" opacity=".75"/>
      <rect x="543.9" y="432.2" width="8.0" height="12.6" rx="1.4" fill="#f2537d"/><rect x="547.2" y="429.6" width="1.4" height="19.7" fill="#f2537d" opacity=".75"/>
      <rect x="559.2" y="432.5" width="8.0" height="12.3" rx="1.4" fill="#34d99a"/><rect x="562.5" y="425.2" width="1.4" height="25.5" fill="#34d99a" opacity=".75"/>
      <rect x="574.5" y="424.0" width="8.0" height="8.5" rx="1.4" fill="#34d99a"/><rect x="577.8" y="416.4" width="1.4" height="21.8" fill="#34d99a" opacity=".75"/>
      <rect x="589.8" y="407.1" width="8.0" height="16.9" rx="1.4" fill="#34d99a"/><rect x="593.1" y="396.3" width="1.4" height="32.7" fill="#34d99a" opacity=".75"/>
      <rect x="605.1" y="399.0" width="8.0" height="8.0" rx="1.4" fill="#34d99a"/><rect x="608.4" y="390.5" width="1.4" height="29.7" fill="#34d99a" opacity=".75"/>
      <rect x="620.4" y="384.7" width="8.0" height="14.3" rx="1.4" fill="#34d99a"/><rect x="623.7" y="379.2" width="1.4" height="34.3" fill="#34d99a" opacity=".75"/>
      <rect x="635.7" y="384.7" width="8.0" height="10.4" rx="1.4" fill="#f2537d"/><rect x="638.9" y="377.5" width="1.4" height="29.1" fill="#f2537d" opacity=".75"/>
      <rect x="651.0" y="395.1" width="8.0" height="9.0" rx="1.4" fill="#f2537d"/><rect x="654.2" y="387.0" width="1.4" height="19.5" fill="#f2537d" opacity=".75"/>
      <rect x="666.3" y="392.3" width="8.0" height="11.8" rx="1.4" fill="#34d99a"/><rect x="669.5" y="380.6" width="1.4" height="32.7" fill="#34d99a" opacity=".75"/>
      <rect x="681.6" y="372.1" width="8.0" height="20.2" rx="1.4" fill="#34d99a"/><rect x="684.8" y="366.2" width="1.4" height="36.8" fill="#34d99a" opacity=".75"/>
      <rect x="696.8" y="363.2" width="8.0" height="8.9" rx="1.4" fill="#34d99a"/><rect x="700.1" y="353.9" width="1.4" height="25.8" fill="#34d99a" opacity=".75"/>
      <rect x="712.1" y="344.5" width="8.0" height="18.8" rx="1.4" fill="#34d99a"/><rect x="715.4" y="330.5" width="1.4" height="40.7" fill="#34d99a" opacity=".75"/>
      <rect x="727.4" y="332.8" width="8.0" height="11.7" rx="1.4" fill="#34d99a"/><rect x="730.7" y="330.2" width="1.4" height="25.1" fill="#34d99a" opacity=".75"/>
      <rect x="742.7" y="321.8" width="8.0" height="11.0" rx="1.4" fill="#34d99a"/><rect x="746.0" y="307.2" width="1.4" height="38.0" fill="#34d99a" opacity=".75"/>
      <rect x="758.0" y="321.8" width="8.0" height="3.6" rx="1.4" fill="#f2537d"/><rect x="761.3" y="315.0" width="1.4" height="20.9" fill="#f2537d" opacity=".75"/>
      <rect x="773.3" y="325.5" width="8.0" height="14.2" rx="1.4" fill="#f2537d"/><rect x="776.6" y="317.7" width="1.4" height="26.0" fill="#f2537d" opacity=".75"/>
      <rect x="788.6" y="339.7" width="8.0" height="10.4" rx="1.4" fill="#f2537d"/><rect x="791.9" y="337.1" width="1.4" height="24.7" fill="#f2537d" opacity=".75"/>
      <rect x="803.9" y="350.1" width="8.0" height="9.9" rx="1.4" fill="#f2537d"/><rect x="807.2" y="345.1" width="1.4" height="21.8" fill="#f2537d" opacity=".75"/>
      <rect x="819.2" y="340.0" width="8.0" height="20.0" rx="1.4" fill="#34d99a"/><rect x="822.5" y="337.1" width="1.4" height="30.5" fill="#34d99a" opacity=".75"/>
      <rect x="834.5" y="332.9" width="8.0" height="7.0" rx="1.4" fill="#34d99a"/><rect x="837.8" y="319.7" width="1.4" height="32.6" fill="#34d99a" opacity=".75"/>
      <rect x="849.8" y="313.2" width="8.0" height="19.7" rx="1.4" fill="#34d99a"/><rect x="853.1" y="307.8" width="1.4" height="32.3" fill="#34d99a" opacity=".75"/>
      <rect x="865.1" y="313.2" width="8.0" height="1.6" rx="1.4" fill="#f2537d"/><rect x="868.4" y="300.0" width="1.4" height="28.0" fill="#f2537d" opacity=".75"/>
      <rect x="880.4" y="313.8" width="8.0" height="9.0" rx="1.4" fill="#f2537d"/><rect x="883.7" y="309.7" width="1.4" height="18.0" fill="#f2537d" opacity=".75"/>
    </g>

    <!-- ============ EQUITY CURVE ============ -->
    <rect x="116" y="540" width="820" height="200" rx="18" fill="#ffffff" fill-opacity=".035" stroke="#ffffff" stroke-opacity=".08"/>
    <text x="144" y="574" fill="#f0f2ff" font-size="15" font-weight="600">Courbe de capital</text>
    <text x="912" y="574" fill="#34d99a" font-size="13" font-weight="700" text-anchor="end">+38,6 %</text>
    <path d="M 372.0 706.0 C 377.8 706.0 377.8 703.2 383.6 703.2 C 389.3 703.2 389.3 699.7 395.1 699.7 C 400.9 699.7 400.9 698.4 406.7 698.4 C 412.4 698.4 412.4 698.9 418.2 698.9 C 424.0 698.9 424.0 696.5 429.8 696.5 C 435.6 696.5 435.6 694.5 441.3 694.5 C 447.1 694.5 447.1 691.2 452.9 691.2 C 458.7 691.2 458.7 685.2 464.4 685.2 C 470.2 685.2 470.2 681.0 476.0 681.0 C 481.8 681.0 481.8 678.0 487.6 678.0 C 493.3 678.0 493.3 674.3 499.1 674.3 C 504.9 674.3 504.9 670.2 510.7 670.2 C 516.4 670.2 516.4 670.3 522.2 670.3 C 528.0 670.3 528.0 664.7 533.8 664.7 C 539.6 664.7 539.6 659.9 545.3 659.9 C 551.1 659.9 551.1 654.5 556.9 654.5 C 562.7 654.5 562.7 649.6 568.4 649.6 C 574.2 649.6 574.2 647.4 580.0 647.4 C 585.8 647.4 585.8 645.2 591.6 645.2 C 597.3 645.2 597.3 645.0 603.1 645.0 C 608.9 645.0 608.9 641.2 614.7 641.2 C 620.4 641.2 620.4 641.2 626.2 641.2 C 632.0 641.2 632.0 641.3 637.8 641.3 C 643.6 641.3 643.6 640.4 649.3 640.4 C 655.1 640.4 655.1 639.8 660.9 639.8 C 666.7 639.8 666.7 638.0 672.4 638.0 C 678.2 638.0 678.2 638.1 684.0 638.1 C 689.8 638.1 689.8 638.6 695.6 638.6 C 701.3 638.6 701.3 638.1 707.1 638.1 C 712.9 638.1 712.9 637.9 718.7 637.9 C 724.4 637.9 724.4 635.9 730.2 635.9 C 736.0 635.9 736.0 636.3 741.8 636.3 C 747.6 636.3 747.6 630.8 753.3 630.8 C 759.1 630.8 759.1 627.1 764.9 627.1 C 770.7 627.1 770.7 626.6 776.4 626.6 C 782.2 626.6 782.2 625.4 788.0 625.4 C 793.8 625.4 793.8 623.6 799.6 623.6 C 805.3 623.6 805.3 621.6 811.1 621.6 C 816.9 621.6 816.9 621.3 822.7 621.3 C 828.4 621.3 828.4 616.0 834.2 616.0 C 840.0 616.0 840.0 609.7 845.8 609.7 C 851.6 609.7 851.6 607.1 857.3 607.1 C 863.1 607.1 863.1 604.3 868.9 604.3 C 874.7 604.3 874.7 604.2 880.4 604.2 C 886.2 604.2 886.2 604.0 892.0 604.0 L 892.0 712.0 L 372.0 712.0 Z" fill="url(#eq)"/>
    <path d="M 372.0 706.0 C 377.8 706.0 377.8 703.2 383.6 703.2 C 389.3 703.2 389.3 699.7 395.1 699.7 C 400.9 699.7 400.9 698.4 406.7 698.4 C 412.4 698.4 412.4 698.9 418.2 698.9 C 424.0 698.9 424.0 696.5 429.8 696.5 C 435.6 696.5 435.6 694.5 441.3 694.5 C 447.1 694.5 447.1 691.2 452.9 691.2 C 458.7 691.2 458.7 685.2 464.4 685.2 C 470.2 685.2 470.2 681.0 476.0 681.0 C 481.8 681.0 481.8 678.0 487.6 678.0 C 493.3 678.0 493.3 674.3 499.1 674.3 C 504.9 674.3 504.9 670.2 510.7 670.2 C 516.4 670.2 516.4 670.3 522.2 670.3 C 528.0 670.3 528.0 664.7 533.8 664.7 C 539.6 664.7 539.6 659.9 545.3 659.9 C 551.1 659.9 551.1 654.5 556.9 654.5 C 562.7 654.5 562.7 649.6 568.4 649.6 C 574.2 649.6 574.2 647.4 580.0 647.4 C 585.8 647.4 585.8 645.2 591.6 645.2 C 597.3 645.2 597.3 645.0 603.1 645.0 C 608.9 645.0 608.9 641.2 614.7 641.2 C 620.4 641.2 620.4 641.2 626.2 641.2 C 632.0 641.2 632.0 641.3 637.8 641.3 C 643.6 641.3 643.6 640.4 649.3 640.4 C 655.1 640.4 655.1 639.8 660.9 639.8 C 666.7 639.8 666.7 638.0 672.4 638.0 C 678.2 638.0 678.2 638.1 684.0 638.1 C 689.8 638.1 689.8 638.6 695.6 638.6 C 701.3 638.6 701.3 638.1 707.1 638.1 C 712.9 638.1 712.9 637.9 718.7 637.9 C 724.4 637.9 724.4 635.9 730.2 635.9 C 736.0 635.9 736.0 636.3 741.8 636.3 C 747.6 636.3 747.6 630.8 753.3 630.8 C 759.1 630.8 759.1 627.1 764.9 627.1 C 770.7 627.1 770.7 626.6 776.4 626.6 C 782.2 626.6 782.2 625.4 788.0 625.4 C 793.8 625.4 793.8 623.6 799.6 623.6 C 805.3 623.6 805.3 621.6 811.1 621.6 C 816.9 621.6 816.9 621.3 822.7 621.3 C 828.4 621.3 828.4 616.0 834.2 616.0 C 840.0 616.0 840.0 609.7 845.8 609.7 C 851.6 609.7 851.6 607.1 857.3 607.1 C 863.1 607.1 863.1 604.3 868.9 604.3 C 874.7 604.3 874.7 604.2 880.4 604.2 C 886.2 604.2 886.2 604.0 892.0 604.0" fill="none" stroke="url(#eqline)" stroke-width="2.6" stroke-linecap="round"/>
    <circle cx="892.0" cy="604.0" r="5" fill="#22d3ee"/>
    <circle cx="892.0" cy="604.0" r="10" fill="#22d3ee" opacity=".22"/>

    <!-- ============ AI COACH PANEL ============ -->
    <rect x="960" y="230" width="292" height="230" rx="18" fill="#ffffff" fill-opacity=".05" stroke="#7c5cff" stroke-opacity=".35"/>
    <circle cx="988" cy="262" r="13" fill="url(#brand)"/>
    <path d="M983 262 l3.5 4 6.5-8" stroke="#0a0d1e" stroke-width="2.2" fill="none" stroke-linecap="round" stroke-linejoin="round"/>
    <text x="1010" y="260" fill="#f0f2ff" font-size="13.5" font-weight="700">Coach IA</text>
    <text x="1010" y="275" fill="#8892bd" font-size="11">analyse comportementale</text>

    <rect x="984" y="292" width="244" height="66" rx="12" fill="#7c5cff" fill-opacity=".13"/>
    <text x="1000" y="313" fill="#d7dcff" font-size="11.5">Tes pertes se concentrent</text>
    <text x="1000" y="330" fill="#d7dcff" font-size="11.5">après 3 gains d'affilée —</text>
    <text x="1000" y="347" fill="#d7dcff" font-size="11.5">signal de sur-confiance.</text>

    <rect x="984" y="370" width="244" height="34" rx="10" fill="#ffffff" fill-opacity=".05"/>
    <circle cx="1002" cy="387" r="5" fill="#fbbf24"/>
    <text x="1016" y="391" fill="#c9d0ee" font-size="11.5">Risque max conseillé : 1 %</text>

    <rect x="984" y="414" width="244" height="30" rx="9" fill="url(#brand)" opacity=".9"/>
    <text x="1106" y="434" fill="#0a0d1e" font-size="12" font-weight="700" text-anchor="middle">Voir le rapport hebdo</text>

    <!-- ============ EMOTIONS / TILT ============ -->
    <rect x="960" y="476" width="292" height="264" rx="18" fill="#ffffff" fill-opacity=".035" stroke="#ffffff" stroke-opacity=".08"/>
    <text x="984" y="506" fill="#f0f2ff" font-size="13.5" font-weight="600">État émotionnel</text>
    <path d="M 984.0 550.9 C 990.4 550.9 990.4 553.0 996.8 553.0 C 1003.3 553.0 1003.3 546.2 1009.7 546.2 C 1016.1 546.2 1016.1 550.0 1022.5 550.0 C 1028.9 550.0 1028.9 556.0 1035.4 556.0 C 1041.8 556.0 1041.8 547.2 1048.2 547.2 C 1054.6 547.2 1054.6 545.2 1061.1 545.2 C 1067.5 545.2 1067.5 549.2 1073.9 549.2 C 1080.3 549.2 1080.3 547.0 1086.7 547.0 C 1093.2 547.0 1093.2 552.9 1099.6 552.9 C 1106.0 552.9 1106.0 550.9 1112.4 550.9 C 1118.8 550.9 1118.8 541.7 1125.3 541.7 C 1131.7 541.7 1131.7 534.3 1138.1 534.3 C 1144.5 534.3 1144.5 529.6 1150.9 529.6 C 1157.4 529.6 1157.4 531.8 1163.8 531.8 C 1170.2 531.8 1170.2 532.3 1176.6 532.3 C 1183.1 532.3 1183.1 536.0 1189.5 536.0 C 1195.9 536.0 1195.9 530.1 1202.3 530.1 C 1208.7 530.1 1208.7 528.0 1215.2 528.0 C 1221.6 528.0 1221.6 522.0 1228.0 522.0" fill="none" stroke="#ff4d9d" stroke-width="2.2" stroke-linecap="round" opacity=".9"/>
    <text x="984" y="594" fill="#8892bd" font-size="11.5">Confiance</text><rect x="1088" y="584" width="140" height="7" rx="3.5" fill="#ffffff" fill-opacity=".07"/><rect x="1088" y="584" width="116" height="7" rx="3.5" fill="#34d99a"/><text x="984" y="624" fill="#8892bd" font-size="11.5">Patience</text><rect x="1088" y="614" width="140" height="7" rx="3.5" fill="#ffffff" fill-opacity=".07"/><rect x="1088" y="614" width="92" height="7" rx="3.5" fill="#22d3ee"/><text x="984" y="654" fill="#8892bd" font-size="11.5">FOMO</text><rect x="1088" y="644" width="140" height="7" rx="3.5" fill="#ffffff" fill-opacity=".07"/><rect x="1088" y="644" width="44" height="7" rx="3.5" fill="#fbbf24"/><text x="984" y="684" fill="#8892bd" font-size="11.5">Tilt détecté</text><rect x="1088" y="674" width="140" height="7" rx="3.5" fill="#ffffff" fill-opacity=".07"/><rect x="1088" y="674" width="26" height="7" rx="3.5" fill="#f2537d"/>
    <rect x="984" y="700" width="244" height="30" rx="9" fill="#ffffff" fill-opacity=".05" stroke="#ffffff" stroke-opacity=".09"/>
    <text x="1106" y="720" fill="#c9d0ee" font-size="11.5" font-weight="600" text-anchor="middle">Journal du jour ✓ complété</text>

    <rect x="0.5" y="0.5" width="1279" height="799" rx="20" fill="none" stroke="#ffffff" stroke-opacity=".12"/>
  </g>
</svg>
